<svg width="160" height="270" viewBox="0 0 160 270" fill="none" xmlns="http://www.w3.org/2000/svg">
<g opacity="0.05" clip-path="url(#clip0_1824_646)">
<path d="M3.37292 74.4424V203.616C3.37292 206.552 4.70517 209.325 6.98902 211.147L73.5197 264.219C76.9999 266.993 81.921 267.02 85.4555 264.301L152.231 212.425C154.596 210.603 155.983 207.776 155.983 204.812V74.4424H3.37292Z" stroke="#8A1826" stroke-width="6.74279" stroke-miterlimit="10"/>
<path d="M13.0217 203.589V84.0671H146.355V204.785L79.5524 256.661L13.0217 203.589Z" fill="#8A1826"/>
<path d="M156.717 77.0527H2.66602L79.6915 0L156.717 77.0527ZM14.3028 72.2131H145.08L79.6915 6.82436L14.3028 72.2131Z" fill="#8A1826"/>
<path d="M45.5155 188.553C49.9201 192.958 55.0316 196.411 60.7684 198.858C66.6955 201.359 72.9761 202.61 79.447 202.61C85.9179 202.61 92.1985 201.359 98.1256 198.858C103.835 196.438 108.974 192.958 113.378 188.553C117.783 184.149 121.236 179.037 123.656 173.301C126.157 167.374 127.435 161.093 127.435 154.622C127.435 148.151 126.184 141.871 123.656 135.943C121.236 130.234 117.783 125.095 113.378 120.691C108.974 116.286 103.862 112.833 98.1256 110.413C92.2257 107.912 85.9179 106.634 79.447 106.634C72.9761 106.634 66.6955 107.885 60.7684 110.413C55.0588 112.833 49.9201 116.286 45.5155 120.691C41.111 125.095 37.658 130.207 35.2382 135.943C32.7369 141.843 31.459 148.151 31.459 154.622C31.459 161.093 32.7369 167.374 35.2382 173.301C37.658 179.01 41.111 184.149 45.5155 188.553ZM49.7298 184.339C47.0925 181.702 44.863 178.766 43.0414 175.612L46.8478 173.573C50.192 176.291 54.1615 178.63 59.1099 180.941L67.2393 194.834C60.6868 192.849 54.7053 189.288 49.7298 184.312M49.3219 127.107L49.3763 127.461L64.4388 125.775L68.3812 136.759L58.0495 154.704L47.8809 155.275L41.4372 141.245C43.857 135.916 46.0593 131.947 49.3219 127.053M86.516 138.39L97.0381 157.395C94.6183 162.262 92.0897 165.307 88.9087 169.821H68.8162C65.1457 162.779 64.6835 161.963 60.9315 155.927L70.9641 138.526C75.9125 138.146 81.1599 137.765 86.516 138.39ZM93.721 126.509L109.79 128.575C112.971 133.36 115.064 137.004 117.674 142.061L111.122 157.096L99.6482 155.682L89.3437 137.058L93.721 126.536V126.509ZM85.9179 194.453C80.2083 195.106 76.2659 194.78 70.5291 194.372L62.2094 180.125L68.1909 172.893H88.9087L96.4399 181.648L85.5373 194.1L85.8907 194.426L85.9179 194.453ZM109.137 184.339C103.618 189.859 96.7934 193.665 89.3981 195.459L88.7999 195.16L100.056 182.327C105.004 179.663 107.75 177.814 111.502 174.796L114.819 177.27C113.215 179.772 111.285 182.137 109.137 184.339ZM116.424 174.579L112.943 171.968C113.705 166.667 113.65 163.404 113.433 159.462L120.121 144.127C120.964 147.499 121.426 151.033 121.426 154.622C121.426 161.718 119.686 168.515 116.424 174.579ZM109.137 124.932C109.137 124.932 109.219 124.986 109.246 125.014L109.164 125.394L92.5519 123.219C89.2077 120.337 85.8907 118.189 81.0511 116.259V112.67C91.6547 113.051 101.579 117.401 109.137 124.932ZM77.9516 112.643V116.259C73.112 118.135 69.8494 119.521 65.3361 122.567L50.4095 124.252C57.9136 117.102 67.5927 112.996 77.9516 112.67M38.9631 143.312L45.4068 157.368L45.5971 157.287C45.2436 161.528 45.1349 165.579 45.5971 170.718L41.5732 172.866C38.8543 167.238 37.4405 161.066 37.4405 154.622C37.4405 150.761 37.9571 146.955 38.9631 143.312Z" fill="white"/>
</g>
<defs>
<clipPath id="clip0_1824_646">
<rect width="159.38" height="269.684" fill="white"/>
</clipPath>
</defs>
</svg>
